<?xml version="1.0" encoding="utf-8"?>
<!-- Generator: Adobe Illustrator 24.3.0, SVG Export Plug-In . SVG Version: 6.00 Build 0)  -->
<svg version="1.1" id="Capa_1" xmlns="http://www.w3.org/2000/svg" xmlns:xlink="http://www.w3.org/1999/xlink" x="0px" y="0px"
	 viewBox="0 0 348.7 61.3" style="enable-background:new 0 0 348.7 61.3;" xml:space="preserve">
<style type="text/css">
	.st0{fill:#00904C;}
	.st1{fill:#F15A22;}
	.st2{fill:#FDB913;}
</style>
<g>
	<path class="st0" d="M42.8,34.4C25,34.4,9.3,43.5,0,57.2c8.4-11.6,22-19.1,37.5-19.1c17.1,0,32.1,9.3,40.1,23.2h10.4
		C79.2,45.3,62.2,34.4,42.8,34.4z"/>
	<path class="st1" d="M55.5,34.4c-1.5,0-3,0.1-4.4,0.2c17,2,31.5,12.3,39.3,26.7h10.3C91.9,45.3,75,34.4,55.5,34.4z"/>
	<path class="st2" d="M42.8,33c2.5,0,5,0.2,7.4,0.5c0.2-0.2,0.5-0.3,0.8-0.3c1.5-0.1,3.1-0.2,4.5-0.2c2.5,0,5,0.2,7.4,0.5
		c0.2-0.2,0.5-0.3,0.8-0.3c1.5-0.1,3.1-0.2,4.5-0.2c8.7,0,17,2.1,24.4,6c0-0.7,0.1-1.3,0.1-2c0-20.4-16.6-37-37-37
		c-20.4,0-37,16.6-37,37c0,0.6,0,1.2,0,1.7C26.1,35,34.3,33,42.8,33z"/>
	<path class="st2" d="M68.3,34.4c-1.5,0-3,0.1-4.4,0.2c17,2,31.5,12.3,39.3,26.7h10.3C104.7,45.3,87.7,34.4,68.3,34.4z"/>
</g>
<g>
	<path d="M115,15.8h3c2.4,0,5.6,0.2,8.1,2.6c2,1.9,2.8,4.7,2.8,7.5c0,2.9-0.8,5.9-3,7.8c-2.4,2.2-5,2.4-7.3,2.4H115V15.8z
		 M109.8,39.9h9.4c2.4,0,5.1-0.1,8.1-1.7c5-2.6,7.2-7.6,7.2-12.6c0-4.7-2.1-9.8-7-12.2c-2.9-1.4-5.7-1.7-8.1-1.7h-9.5V39.9z"/>
	<path d="M152.5,36.6c-5.9,0-9.5-4.9-9.5-10.8c0-6.2,3.9-10.9,9.4-10.9c5.4,0,9.4,4.5,9.4,10.9C161.7,31.1,158.6,36.6,152.5,36.6z
		 M167.3,25.7c0-8.1-5.9-14.7-15-14.7c-9.3,0-14.9,6.9-14.9,14.9c0,8.3,5.8,14.7,15.1,14.7C161.7,40.7,167.3,33.8,167.3,25.7z"/>
	<path d="M195.7,39.9h-1.8l-18.3-20.3l0.2,20.3h-5.2V11.8h4.9l15.3,17.5l-0.2-17.5h5.1V39.9z"/>
	<path d="M236.7,39.9h-5.2l-2-20.5L220,39.9h-0.6l-9.4-20.6l-2,20.6h-5l3.1-28.1h5.3l8.4,18.5l8.3-18.5h5.3L236.7,39.9z"/>
	<path d="M249.5,29.4l4-10.6c0.1-0.4,0.2-0.5,0.4-1.4c0.2,0.9,0.3,1,0.4,1.5l3.8,10.5H249.5z M256.7,11.8h-5.1l-11.4,28.1h5.3l2.7-7
		h11.2l2.6,7h5.7L256.7,11.8z"/>
	<path d="M277.2,15.6h3.5c2.7,0,5,1.1,5,4.2c0,2-1.2,3.8-3.7,4.3c-0.9,0.2-1.8,0.2-2.6,0.1l-2.2,3.2V15.6z M286.6,26.6
		c1.2-0.7,4.5-2.6,4.5-7.1c0-2.9-1.6-6.3-5.9-7.3c-1.4-0.3-2.7-0.4-3.9-0.4H272v28.1h5.2V27.9c2.4,0,2.7,0,4.3-0.2l7.5,12.2h5.9
		L286.6,26.6z"/>
	<path d="M305,39.9h-5.3V11.8h5.3V39.9z"/>
	<path d="M325.7,36.6c-5.9,0-9.5-4.9-9.5-10.8c0-6.2,3.9-10.9,9.4-10.9c5.4,0,9.4,4.5,9.4,10.9C335,31.1,331.8,36.6,325.7,36.6z
		 M340.5,25.7c0-8.1-5.9-14.7-15-14.7c-9.3,0-15,6.9-15,14.9c0,8.3,5.8,14.7,15.1,14.7C335,40.7,340.5,33.8,340.5,25.7z"/>
	<path d="M342.8,37v-1.3h0.7c0.5,0,0.9,0.1,0.9,0.6c0,0.2-0.1,0.4-0.2,0.5c-0.2,0.2-0.6,0.2-0.7,0.2H342.8z M342.2,35.3v4.1h0.6
		v-1.9h0.3c0.6,0,0.9,0.1,1,0.7c0,0.1,0.1,0.6,0.1,0.7c0,0.2,0.1,0.4,0.2,0.6h0.7c-0.2-0.4-0.2-0.6-0.3-1.2
		c-0.1-0.5-0.2-0.8-0.7-0.9c0.5-0.1,0.9-0.4,0.9-1c0-0.8-0.8-1-1.3-1H342.2z M346.9,37.3c0-1.8-1.4-3.3-3.3-3.3
		c-1.8,0-3.3,1.4-3.3,3.3c0,2,1.6,3.3,3.3,3.3C345.4,40.7,346.9,39.2,346.9,37.3z M343.5,40.4c-1.6,0-3-1.3-3-3c0-1.7,1.3-3,3-3
		c1.7,0,3,1.4,3,3C346.6,39,345.3,40.4,343.5,40.4z"/>
	<g>
		<path d="M135.9,58.2c0.7,0.5,1.5,0.8,2.3,0.8c1.2,0,1.7-0.7,1.7-1.3c0-0.8-0.7-1.1-1.3-1.4l-0.5-0.2c-0.5-0.2-1.1-0.5-1.5-1
			c-0.2-0.3-0.5-0.7-0.5-1.4c0-1.3,1.1-2.5,3-2.5c1.1,0,1.8,0.3,2.1,0.4v1.4c-0.3-0.2-0.9-0.7-2-0.7c-1.1,0-1.5,0.7-1.5,1.2
			c0,0.8,0.8,1.1,1.4,1.4l0.6,0.3c0.5,0.2,1.1,0.5,1.4,1c0.3,0.3,0.5,0.8,0.5,1.4c0,1.4-1.2,2.6-3.2,2.6c-0.5,0-1.4-0.1-2.4-0.5
			V58.2z"/>
		<path d="M165.3,60h-4.9v-8.5h5v1.2H162v2.3h3v1.2h-3v2.6h4L165.3,60z"/>
		<path d="M194.5,60h-1.6l-0.6-6.2l-2.9,6.2h-0.2l-2.9-6.3l-0.6,6.3h-1.5l0.9-8.5h1.6l2.6,5.6l2.5-5.6h1.6L194.5,60z"/>
		<path d="M215.3,60h-1.6v-8.5h1.6V60z"/>
		<path d="M239.8,60h-4.9v-8.5h1.6v7.3h4.1L239.8,60z"/>
		<path d="M263.6,60h-4.9v-8.5h1.6v7.3h4.1L263.6,60z"/>
		<path d="M284.9,56.8l1.2-3.2c0-0.1,0-0.2,0.1-0.4c0.1,0.3,0.1,0.3,0.1,0.5l1.2,3.2H284.9z M287.1,51.4h-1.5l-3.4,8.5h1.6l0.8-2.1
			h3.4l0.8,2.1h1.7L287.1,51.4z"/>
		<path d="M308.5,58.2c0.7,0.5,1.5,0.8,2.3,0.8c1.2,0,1.7-0.7,1.7-1.3c0-0.8-0.7-1.1-1.3-1.4l-0.5-0.2c-0.5-0.2-1.1-0.5-1.5-1
			c-0.2-0.3-0.5-0.7-0.5-1.4c0-1.3,1.1-2.5,3-2.5c1.1,0,1.8,0.3,2.1,0.4v1.4c-0.3-0.2-0.9-0.7-2-0.7c-1.1,0-1.5,0.7-1.5,1.2
			c0,0.8,0.8,1.1,1.4,1.4l0.6,0.3c0.5,0.2,1.1,0.5,1.4,1c0.3,0.3,0.5,0.8,0.5,1.4c0,1.4-1.2,2.6-3.2,2.6c-0.5,0-1.4-0.1-2.4-0.5
			V58.2z"/>
	</g>
</g>
</svg>
